{"title":"Jackhammer.2014.HDRip.x264-MenaceIISociety","uid":12153313,"size":891185325,"categoryP":"video","categoryS":"movies","magnet":"?xt=urn:btih:6ff573acd905e4d1eeb6625507eb89cc0eeedeb1&amp;dn=Jackhammer.2014.HDRip.x264-MenaceIISociety&amp;tr=udp%3A%2F%2Ftracker.openbittorrent.com%3A80&amp;tr=udp%3A%2F%2Fopen.demonii.com%3A1337&amp;tr=udp%3A%2F%2Ftracker.coppersurfer.tk%3A6969&amp;tr=udp%3A%2F%2Fexodus.desync.com%3A6969","seeders":0,"leechers":0,"uploader":"TvTeam","files":4,"time":1437693653,"description":"------------------------------------------------------------------------\n\n &lt;a href=&quot; https://www.torrenting.com&quot; rel=&quot;nofollow&quot; target=&quot;_NEW&quot;&gt; https://www.torrenting.com&lt;/a&gt;\n\nSign up is OPEN - for time being. Come and have fun\n\n.......................................................................................................................[img]http://s1.postimg.org/kqp9160nz/jackhammer.jpg[/img]\n\nJackhammer.2014.HDRip.x264-MenaceIISociety &lt;a href=&quot;\nhttp://www.imdb.com/title/tt2076866/&quot; rel=&quot;nofollow&quot; target=&quot;_NEW&quot;&gt;\nhttp://www.imdb.com/title/tt2076866/&lt;/a&gt;\n\nSource: 720p-NTb [THANKS]\n\nGeneral\nComplete name                            : Jackhammer.2014.HDRip.x264-MenaceIISociety.mp4\nFormat                                   : MPEG-4\nFormat profile                           : Base Media\nCodec ID                                 : isom\nFile size                                : 831 MiB\nDuration                                 : 1h 35mn\nOverall bit rate mode                    : Variable\nOverall bit rate                         : 1 216 Kbps\nEncoded date                             : UTC 2015-07-23 19:44:18\nTagged date                              : UTC 2015-07-23 19:44:18\n\nVideo\nID                                       : 1\nFormat                                   : AVC\nFormat/Info                              : Advanced Video Codec\nFormat profile                           : &lt;a class=&quot;__cf_email__&quot; href=&quot;/cdn-cgi/l/email-protection&quot; data-cfemail=&quot;1c54757b745c5028322d&quot;&gt;[email&amp;#160;protected]&lt;/a&gt;&lt;script data-cfhash='f9e31' type=&quot;text/javascript&quot;&gt;\n/* &lt;![CDATA[ */!function(){try{var t=&quot;currentScript&quot;in document?document.currentScript:function(){for(var t=document.getElementsByTagName(&quot;script&quot;),e=t.length;e--;)if(t[e].getAttribute(&quot;data-cfhash&quot;))return t[e]}();if(t&amp;&amp;t.previousSibling){var e,r,n,i,c=t.previousSibling,a=c.getAttribute(&quot;data-cfemail&quot;);if(a){for(e=&quot;&quot;,r=parseInt(a.substr(0,2),16),n=2;a.length-n;n+=2)i=parseInt(a.substr(n,2),16)^r,e+=String.fromCharCode(i);e=document.createTextNode(e),c.parentNode.replaceChild(e,c)}t.parentNode.removeChild(t);}}catch(u){}}()/* ]]&gt; */&lt;/script&gt;\nFormat settings, CABAC                   : Yes\nFormat settings, ReFrames                : 3 frames\nCodec ID                                 : avc1\nCodec ID/Info                            : Advanced Video Coding\nDuration                                 : 1h 35mn\nBit rate mode                            : Variable\nBit rate                                 : 1 149 Kbps\nMaximum bit rate                         : 40.0 Mbps\nWidth                                    : 720 pixels\nHeight                                   : 388 pixels\nDisplay aspect ratio                     : 1.85:1\nFrame rate mode                          : Constant\nFrame rate                               : 23.976 fps\nColor space                              : YUV\nChroma subsampling                       : 4:2:0\nBit depth                                : 8 bits\nScan type                                : Progressive\nBits/(Pixel*Frame)                       : 0.171\nStream size                              : 785 MiB (94%)\nWriting library                          : x264 core 146 r2538 121396c\n\nAudio\nID                                       : 2\nFormat                                   : AAC\nFormat/Info                              : Advanced Audio Codec\nFormat profile                           : HE-AAC / LC\nCodec ID                                 : 40\nDuration                                 : 1h 35mn\nBit rate mode                            : Variable\nBit rate                                 : 64.0 Kbps\nMaximum bit rate                         : 71.1 Kbps\nChannel(s)                               : 2 channels\nChannel positions                        : Front: L R\nSampling rate                            : 48.0 KHz / 24.0 KHz\nCompression mode                         : Lossy\nStream size                              : 43.7 MiB (5%)\nLanguage                                 : English\nEncoded date                             : UTC 2015-07-23 19:46:38\nTagged date                              : UTC 2015-07-23 19:46:49\n\n[img]http://s17.postimg.org/ew1oo7cy7/vlcsnap_2015_07_23_21h52m20s055.jpg[/img]\n[img]http://s17.postimg.org/kuag1bplb/vlcsnap_2015_07_23_21h52m56s437.jpg[/img]\n[img]http://s17.postimg.org/yrxo3qtzj/vlcsnap_2015_07_23_21h53m24s001.jpg[/img]\n[img]http://s17.postimg.org/fdwu422j3/vlcsnap_2015_07_23_21h54m08s490.jpg[/img]\n[img]http://s17.postimg.org/acpg2ov2n/vlcsnap_2015_07_23_21h54m17s957.jpg[/img]\n[img]http://s17.postimg.org/kwubo5t8v/vlcsnap_2015_07_23_21h55m11s946.jpg[/img]\n[img]http://s17.postimg.org/o7nql5phr/vlcsnap_2015_07_23_21h55m37s755.jpg[/img]\n[img]http://s17.postimg.org/sob1mpxe7/vlcsnap_2015_07_23_21h56m46s274.jpg[/img] \n\n[img]http://s17.postimg.org/r1iiyw8yn/Untitled_1.png[/img]","torrent":{"xt":"urn:btih:6ff573acd905e4d1eeb6625507eb89cc0eeedeb1","amp;dn":"Jackhammer.2014.HDRip.x264-MenaceIISociety","amp;tr":["udp%3A%2F%2Ftracker.openbittorrent.com%3A80","udp%3A%2F%2Fopen.demonii.com%3A1337","udp%3A%2F%2Ftracker.coppersurfer.tk%3A6969","udp%3A%2F%2Fexodus.desync.com%3A6969"],"infoHash":"6ff573acd905e4d1eeb6625507eb89cc0eeedeb1","infoHashBuffer":{"type":"Buffer","data":[111,245,115,172,217,5,228,209,238,182,98,85,7,235,137,204,14,238,222,177]},"announce":[],"urlList":[]}}